<?xml version="1.0" encoding="UTF-8"?>
<svg width="350px" height="320px" viewBox="0 0 350 320" version="1.1" xmlns="http://www.w3.org/2000/svg" xmlns:xlink="http://www.w3.org/1999/xlink">
    <!-- Generator: Sketch 48.2 (47327) - http://www.bohemiancoding.com/sketch -->
    <title>Icon/Dust</title>
    <desc>Created with Sketch.</desc>
    <defs></defs>
    <g id="Symbols" stroke="none" stroke-width="1" fill="none" fill-rule="evenodd">
        <g id="Icon/Dust" fill="#FFFFFF">
            <path d="M72.6947119,190 C72.2370579,186.899676 72,183.727522 72,180.5 C72,144.877634 100.877634,116 136.5,116 C158.030849,116 177.097694,126.549658 188.813408,142.761849 C197.056394,137.832749 206.697385,135 217,135 C236.94278,135 254.406496,145.614132 264.050166,161.501413 C270.41154,157.995099 277.72278,156 285.5,156 C310.076671,156 330,175.923329 330,200.5 C330,202.777503 329.828906,205.015045 329.498871,207.200474 C331.106398,210.805154 332,214.798221 332,219 C332,235.016258 319.016258,248 303,248 L71,248 C54.9837423,248 42,235.016258 42,219 C42,202.983742 54.9837423,190 71,190 L72.6947119,190 Z" id="Combined-Shape"></path>
        </g>
    </g>
</svg>