<?xml version="1.0" encoding="UTF-8"?>
<svg width="100px" height="100px" viewBox="0 0 100 100" version="1.1" xmlns="http://www.w3.org/2000/svg" xmlns:xlink="http://www.w3.org/1999/xlink">
    <!-- Generator: Sketch 48.2 (47327) - http://www.bohemiancoding.com/sketch -->
    <title>Icon/Wheel</title>
    <desc>Created with Sketch.</desc>
    <defs></defs>
    <g id="Symbols" stroke="none" stroke-width="1" fill="none" fill-rule="evenodd">
        <g id="Icon/Wheel" class="wheel" stroke="#979797" stroke-width="0.97826087">
            <g id="Back-Wheel" x="50" y="50">
                <g id="Lines" transform="translate(0.000000, 1.000000)" stroke-linecap="square">
                    <path d="M100,50 L0,50" id="Line-7"></path>
                    <path d="M82.5,16.5 L16.5,82.5" id="Line-6"></path>
                    <path d="M83.5,15.5 L15.5,82.5" id="Line-5" transform="translate(49.500000, 49.000000) scale(-1, 1) translate(-49.500000, -49.000000) "></path>
                    <path d="M50,0.490196078 L50,96.5" id="Line-1"></path>
                </g>
                <g id="Tyre" fill="#D8D8D8">
                    <path d="M50,100 C22.3857625,100 0,77.6142375 0,50 C0,22.3857625 22.3857625,0 50,0 C77.6142375,0 100,22.3857625 100,50 C100,77.6142375 77.6142375,100 50,100 Z M50,94 C74.300529,94 94,74.300529 94,50 C94,25.699471 74.300529,6 50,6 C25.699471,6 6,25.699471 6,50 C6,74.300529 25.699471,94 50,94 Z"></path>
                </g>
                <circle id="Center" fill="#D8D8D8" cx="50" cy="50" r="6">
                </circle>
            </g>
        </g>
    </g>
</svg>